<?xml version="1.0" standalone="no"?>
<!DOCTYPE svg PUBLIC "-//W3C//DTD SVG 20010904//EN"
 "http://www.w3.org/TR/2001/REC-SVG-20010904/DTD/svg10.dtd">
<svg version="1.0" xmlns="http://www.w3.org/2000/svg"
 width="200.000000pt" height="200.000000pt" viewBox="0 0 200.000000 200.000000"
 preserveAspectRatio="xMidYMid meet">
<metadata>
Created by potrace 1.14, written by Peter Selinger 2001-2017
</metadata>
<g transform="translate(0.000000,200.000000) scale(0.100000,-0.100000)"
fill="#000000" stroke="none">
<path d="M586 1875 c-51 -16 -119 -46 -151 -65 -78 -46 -200 -170 -248 -251
-44 -75 -84 -195 -89 -264 l-3 -49 107 -1 107 -1 6 28 c19 84 119 129 196 88
23 -13 54 -58 62 -90 6 -24 8 -25 89 -24 46 1 85 2 89 3 3 0 5 52 5 115 -1
131 6 146 65 146 37 0 69 20 69 43 0 26 -20 40 -70 48 -29 4 -55 11 -58 13 -3
3 -6 70 -7 148 l-1 143 -38 0 c-21 0 -79 -13 -130 -30z"/>
<path d="M1245 1402 l0 -110 26 -6 c71 -14 122 -102 99 -171 -13 -38 -62 -85
-90 -85 -9 0 -22 -6 -27 -12 -8 -10 -10 -112 -4 -163 1 -7 43 -10 114 -10 130
1 147 -6 147 -66 0 -38 20 -69 45 -69 25 0 45 31 45 68 0 64 3 65 162 67 l143
1 -1 24 c-5 117 -64 260 -153 373 -115 144 -277 237 -461 262 l-46 7 1 -110z"/>
<path d="M816 874 c-9 -8 -16 -32 -16 -53 0 -60 -13 -65 -169 -66 l-136 -1 3
-44 c5 -88 53 -217 115 -310 45 -67 155 -170 228 -213 70 -41 185 -81 264 -92
l51 -6 -1 110 0 109 -36 11 c-39 12 -73 43 -87 81 -29 77 32 171 113 175 10 0
15 174 5 176 -3 1 -55 2 -116 3 -126 2 -144 9 -144 63 0 65 -37 94 -74 57z"/>
<path d="M1249 755 c-1 0 -2 -52 -3 -117 -2 -136 -8 -148 -72 -148 -42 0 -64
-17 -64 -49 0 -21 33 -41 70 -41 59 0 65 -15 65 -174 l-1 -137 41 6 c76 10 99
16 169 44 68 26 174 90 224 135 47 42 132 158 161 220 45 96 84 254 63 257 -4
1 -53 2 -109 3 l-102 2 -7 -28 c-19 -88 -126 -131 -202 -82 -26 17 -63 74 -56
85 9 16 -23 24 -98 24 -43 1 -79 1 -79 0z"/>
</g>
</svg>
